<svg width="24" height="24" viewBox="0 0 24 24" fill="none" xmlns="http://www.w3.org/2000/svg">
  <rect x="4.4" y="4.4" width="15.2" height="15.2" rx="2.6" fill="#e3b23a" fill-opacity="0.13"/>
  <path d="M9 2.3v2.2M12 2.3v2.2M15 2.3v2.2M9 19.5v2.2M12 19.5v2.2M15 19.5v2.2M2.3 9h2.2M2.3 12h2.2M2.3 15h2.2M19.5 9h2.2M19.5 12h2.2M19.5 15h2.2" stroke="#e3b23a" stroke-width="1.5" stroke-linecap="round"/>
  <rect x="4.4" y="4.4" width="15.2" height="15.2" rx="2.6" fill="none" stroke="#e3b23a" stroke-width="1.4"/>
  <g fill="#e3b23a">
    <rect x="7.9" y="7.9" width="2.4" height="2.4" rx="0.4" opacity="0.95"/>
    <rect x="10.8" y="7.9" width="2.4" height="2.4" rx="0.4" opacity="0.5"/>
    <rect x="13.7" y="7.9" width="2.4" height="2.4" rx="0.4" opacity="0.85"/>
    <rect x="7.9" y="10.8" width="2.4" height="2.4" rx="0.4" opacity="0.55"/>
    <rect x="10.8" y="10.8" width="2.4" height="2.4" rx="0.4" opacity="1"/>
    <rect x="13.7" y="10.8" width="2.4" height="2.4" rx="0.4" opacity="0.5"/>
    <rect x="7.9" y="13.7" width="2.4" height="2.4" rx="0.4" opacity="0.8"/>
    <rect x="10.8" y="13.7" width="2.4" height="2.4" rx="0.4" opacity="0.6"/>
    <rect x="13.7" y="13.7" width="2.4" height="2.4" rx="0.4" opacity="0.92"/>
  </g>
</svg>
