<svg width="17" height="17" viewBox="0 0 17 17" fill="none" xmlns="http://www.w3.org/2000/svg"><path d="M0.00176811 3.09868C0.156673 1.47465 1.46488 0.149026 3.09032 0L13.9156 0.0102899C15.5259 0.179541 16.844 1.53993 16.9458 3.16716C17.1177 5.92272 16.8139 8.85782 16.9437 11.6322C16.8044 13.2463 15.4406 14.6212 13.8219 14.7326C12.8154 14.8018 11.7356 14.6716 10.7217 14.7387L8.76769 16.9215C8.55938 17.0362 8.30404 17.0291 8.11907 16.8747L6.22414 14.7387C5.20983 14.672 4.13009 14.8022 3.12392 14.7326C1.48999 14.6202 0.125906 13.2289 0 11.5985L0.00176811 3.09832V3.09868Z" fill="#1A1206"/><path d="M3.12207 0.5C1.75339 0.632367 0.642869 1.75088 0.501953 3.12598L0.500977 11.5742C0.615277 12.9584 1.78383 14.1387 3.1582 14.2334C3.63244 14.2662 4.12929 14.253 4.65625 14.2373C5.17385 14.2219 5.72169 14.205 6.25684 14.2402L6.46191 14.2529L6.59863 14.4072L8.45117 16.4941C8.45503 16.4956 8.45897 16.4996 8.46484 16.5C8.46808 16.5002 8.47159 16.4984 8.47559 16.498L10.3496 14.4053L10.4854 14.2529L10.6885 14.2402L11.0918 14.2227C11.4958 14.2132 11.9009 14.2248 12.2891 14.2363C12.8161 14.252 13.3136 14.266 13.7881 14.2334H13.7871C15.1471 14.1398 16.3154 12.9754 16.4434 11.6084C16.3806 10.2139 16.4233 8.78278 16.4609 7.37891C16.4992 5.95157 16.5316 4.55042 16.4473 3.19824C16.3611 1.82296 15.2433 0.662627 13.8828 0.509766L3.12207 0.5Z" stroke="#B8860B" stroke-opacity="0.45"/><path d="M6.27815 4.25H7.6669L9.69505 10.1291H8.52722L8.10907 8.86654H5.83633L5.41005 10.1291H4.25L6.27815 4.25ZM7.80086 7.91927L6.97235 5.44151L6.14384 7.91927H7.80086Z" fill="#E3B23A"/><path d="M10.3511 4.25H11.4242V10.1291H10.3511V4.25Z" fill="#E3B23A"/></svg>
