<svg width="24" height="24" viewBox="0 0 24 24" fill="none" xmlns="http://www.w3.org/2000/svg">
  <!-- ANCIEN : châssis de puce (subtil) -->
  <rect x="4.7" y="4.7" width="14.6" height="14.6" rx="2.6" fill="#e3b23a" fill-opacity="0.07" stroke="#e3b23a" stroke-width="1.1" stroke-opacity="0.5"/>
  <path d="M9 2.7v2M12 2.7v2M15 2.7v2M9 19.3v2M12 19.3v2M15 19.3v2M2.7 9h2M2.7 12h2M2.7 15h2M19.3 9h2M19.3 12h2M19.3 15h2" stroke="#e3b23a" stroke-width="1.2" stroke-linecap="round" stroke-opacity="0.5"/>
  <!-- NOUVEAU : éclat IA radial à 12 rais -->
  <g stroke="#e3b23a" stroke-width="1.15" stroke-linecap="round">
    <path d="M13.6 12 17 12M10.4 12 7 12M12 13.6 12 17M12 10.4 12 7"/>
    <path d="M13.39 12.8 16.33 14.5M10.61 11.2 7.67 9.5M12.8 13.39 14.5 16.33M11.2 10.61 9.5 7.67"/>
    <path d="M11.2 13.39 9.5 16.33M12.8 10.61 14.5 7.67M10.61 12.8 7.67 14.5M13.39 11.2 16.33 9.5"/>
  </g>
  <circle cx="12" cy="12" r="1.6" fill="#e3b23a"/>
</svg>
